<mxfile host="app.diagrams.net" agent="Mozilla/5.0 (Windows NT 10.0; Win64; x64) AppleWebKit/537.36 (KHTML, like Gecko) Chrome/130.0.0.0 Safari/537.36" version="24.8.4">
  <diagram name="Page-1" id="a9Bd8awxfXG4mOf1hPGa">
    <mxGraphModel dx="3850" dy="3560" grid="1" gridSize="10" guides="1" tooltips="1" connect="1" arrows="1" fold="1" page="1" pageScale="1" pageWidth="850" pageHeight="1100" math="0" shadow="0">
      <root>
        <mxCell id="0" />
        <mxCell id="1" parent="0" />
        <mxCell id="6cosJ_ruShOTFv7M89cE-29" value="" style="rounded=0;whiteSpace=wrap;html=1;fontSize=11;" vertex="1" parent="1">
          <mxGeometry x="-85.29" y="-1550" width="350" height="200" as="geometry" />
        </mxCell>
        <mxCell id="RhFKpbfhdEMoOrh1-Fe3-15" value="odds-sys-backend" style="swimlane;whiteSpace=wrap;html=1;startSize=23;" parent="1" vertex="1">
          <mxGeometry x="230" y="262.4" width="731.3" height="1657.6" as="geometry" />
        </mxCell>
        <mxCell id="RhFKpbfhdEMoOrh1-Fe3-16" value="DhhWebSocketConnection" style="rounded=0;whiteSpace=wrap;html=1;" parent="RhFKpbfhdEMoOrh1-Fe3-15" vertex="1">
          <mxGeometry x="510" y="217.6" width="201.3" height="60" as="geometry" />
        </mxCell>
        <mxCell id="RhFKpbfhdEMoOrh1-Fe3-17" value="KajSseConnection" style="rounded=0;whiteSpace=wrap;html=1;" parent="RhFKpbfhdEMoOrh1-Fe3-15" vertex="1">
          <mxGeometry x="510" y="287.6" width="201.3" height="60" as="geometry" />
        </mxCell>
        <mxCell id="RhFKpbfhdEMoOrh1-Fe3-18" value="https://api-dev.odds988.com/sse/internal&lt;br&gt;https://api-stg.odds988.com/sse/internal&lt;br&gt;https://api.odds988.com/sse/internal" style="text;align=left;verticalAlign=middle;whiteSpace=wrap;rounded=0;html=1;" parent="RhFKpbfhdEMoOrh1-Fe3-15" vertex="1">
          <mxGeometry x="10" y="32" width="260" height="60" as="geometry" />
        </mxCell>
        <mxCell id="12gwARSlPllt_peua3XU-6" value="&lt;p style=&quot;&quot;&gt;&lt;font face=&quot;Helvetica&quot;&gt;&lt;span style=&quot;white-space: pre;&quot;&gt;// race-state&lt;br&gt;{&lt;br&gt;&lt;/span&gt;&lt;span style=&quot;white-space: pre;&quot;&gt;    &quot;raceTrackId&quot;: &quot;G&quot;,&lt;br&gt;&lt;/span&gt;&lt;span style=&quot;white-space: pre;&quot;&gt;    &quot;term&quot;: 9565743,&lt;br&gt;&lt;/span&gt;&lt;span style=&quot;white-space: pre;&quot;&gt;    &quot;status&quot;: 2 // 0 = pregame, 1 = open, 2 = closed&lt;br/&gt;&lt;/span&gt;&lt;span style=&quot;white-space: pre;&quot;&gt;}&lt;/span&gt;&lt;/font&gt;&lt;/p&gt;" style="text;overflow=hidden;rounded=0;whiteSpace=wrap;fillColor=#bac8d3;strokeColor=#23445d;html=1;fontColor=default;" parent="RhFKpbfhdEMoOrh1-Fe3-15" vertex="1">
          <mxGeometry x="10" y="97.6" width="390" height="120" as="geometry" />
        </mxCell>
        <mxCell id="12gwARSlPllt_peua3XU-7" value="&lt;div&gt;// message: pre-game odds config&lt;br&gt;{&lt;/div&gt;&lt;div&gt;&amp;nbsp; &amp;nbsp; &quot;game_id&quot;: 86, // mapped to api-sys&lt;/div&gt;&lt;div&gt;&amp;nbsp; &amp;nbsp; &quot;merchant_id&quot;: 2,&lt;/div&gt;&lt;div&gt;&amp;nbsp; &amp;nbsp; &quot;game_state&quot;: &quot;pregame&quot;,&lt;/div&gt;&lt;div&gt;&amp;nbsp; &amp;nbsp; &quot;ranking&quot;: 9,&lt;/div&gt;&lt;div&gt;&amp;nbsp; &amp;nbsp; &quot;data&quot;: [&lt;/div&gt;&lt;div&gt;&amp;nbsp; &amp;nbsp; &amp;nbsp; &amp;nbsp; {&lt;/div&gt;&lt;div&gt;&amp;nbsp; &amp;nbsp; &amp;nbsp; &amp;nbsp; &amp;nbsp; &amp;nbsp; &quot;game_odds_type_id&quot;: 750, // mapped to api-sys&lt;/div&gt;&lt;div&gt;&amp;nbsp; &amp;nbsp; &amp;nbsp; &amp;nbsp; &amp;nbsp; &amp;nbsp; &quot;is_active&quot;: true,&amp;nbsp;&lt;/div&gt;&lt;div&gt;&amp;nbsp; &amp;nbsp; &amp;nbsp; &amp;nbsp; &amp;nbsp; &amp;nbsp; &quot;type_key&quot;: &quot;YLBA-LM-LM&quot;, // mapped to api-sys&lt;/div&gt;&lt;div&gt;&amp;nbsp; &amp;nbsp; &amp;nbsp; &amp;nbsp; &amp;nbsp; &amp;nbsp; &quot;odds&quot;: [&lt;/div&gt;&lt;div&gt;&amp;nbsp; &amp;nbsp; &amp;nbsp; &amp;nbsp; &amp;nbsp; &amp;nbsp; &amp;nbsp; &amp;nbsp; {&lt;/div&gt;&lt;div&gt;&amp;nbsp; &amp;nbsp; &amp;nbsp; &amp;nbsp; &amp;nbsp; &amp;nbsp; &amp;nbsp; &amp;nbsp; &amp;nbsp; &amp;nbsp; &quot;name&quot;: &quot;[秋名山] - [两面 - 小 - 9]&quot;, // for reference only&lt;/div&gt;&lt;div&gt;&amp;nbsp; &amp;nbsp; &amp;nbsp; &amp;nbsp; &amp;nbsp; &amp;nbsp; &amp;nbsp; &amp;nbsp; &amp;nbsp; &amp;nbsp; &quot;odds_type_lot&quot;: 34, // mapped to api-sys&lt;/div&gt;&lt;div&gt;&amp;nbsp; &amp;nbsp; &amp;nbsp; &amp;nbsp; &amp;nbsp; &amp;nbsp; &amp;nbsp; &amp;nbsp; &amp;nbsp; &amp;nbsp; &quot;odds_type_lot_key&quot;: &quot;YLBA-LM-9-X&quot;, // mapped to api-sys&lt;/div&gt;&lt;div&gt;&amp;nbsp; &amp;nbsp; &amp;nbsp; &amp;nbsp; &amp;nbsp; &amp;nbsp; &amp;nbsp; &amp;nbsp; &amp;nbsp; &amp;nbsp; &quot;cashback&quot;: 0.01,&lt;/div&gt;&lt;div&gt;&amp;nbsp; &amp;nbsp; &amp;nbsp; &amp;nbsp; &amp;nbsp; &amp;nbsp; &amp;nbsp; &amp;nbsp; &amp;nbsp; &amp;nbsp; &quot;odds&quot;: 1&lt;/div&gt;&lt;div&gt;&amp;nbsp; &amp;nbsp; &amp;nbsp; &amp;nbsp; &amp;nbsp; &amp;nbsp; &amp;nbsp; &amp;nbsp; }&lt;/div&gt;&lt;div&gt;&amp;nbsp; &amp;nbsp; &amp;nbsp; &amp;nbsp; &amp;nbsp; &amp;nbsp; ]&lt;/div&gt;&lt;div&gt;&amp;nbsp; &amp;nbsp; &amp;nbsp; &amp;nbsp; }&lt;/div&gt;&lt;div&gt;&amp;nbsp; &amp;nbsp; ]&lt;/div&gt;&lt;div&gt;}&lt;/div&gt;" style="text;overflow=hidden;rounded=0;whiteSpace=wrap;fillColor=#bac8d3;strokeColor=#23445d;html=1;" parent="RhFKpbfhdEMoOrh1-Fe3-15" vertex="1">
          <mxGeometry x="10" y="337.6" width="390" height="350" as="geometry" />
        </mxCell>
        <mxCell id="12gwARSlPllt_peua3XU-8" value="&lt;div&gt;// message: pre-game currency config&lt;br&gt;{&lt;/div&gt;&lt;div&gt;&amp;nbsp; &amp;nbsp; &quot;game_id&quot;: 86,&lt;/div&gt;&lt;div&gt;&amp;nbsp; &amp;nbsp; &quot;merchant_id&quot;: 2,&lt;/div&gt;&lt;div&gt;&amp;nbsp; &amp;nbsp; &quot;game_state&quot;: &quot;pregame&quot;,&lt;/div&gt;&lt;div&gt;&amp;nbsp; &amp;nbsp; &quot;ranking&quot;: 10,&lt;/div&gt;&lt;div&gt;&amp;nbsp; &amp;nbsp; &quot;data&quot;: [&lt;/div&gt;&lt;div&gt;&amp;nbsp; &amp;nbsp; &amp;nbsp; &amp;nbsp; {&lt;/div&gt;&lt;div&gt;&amp;nbsp; &amp;nbsp; &amp;nbsp; &amp;nbsp; &amp;nbsp; &amp;nbsp; &quot;game_odds_type_id&quot;: 750,&lt;/div&gt;&lt;div&gt;&amp;nbsp; &amp;nbsp; &amp;nbsp; &amp;nbsp; &amp;nbsp; &amp;nbsp; &quot;is_active&quot;: true,&lt;/div&gt;&lt;div&gt;&amp;nbsp; &amp;nbsp; &amp;nbsp; &amp;nbsp; &amp;nbsp; &amp;nbsp; &quot;type_key&quot;: &quot;YLBA-LM-LM&quot;,&lt;/div&gt;&lt;div&gt;&amp;nbsp; &amp;nbsp; &amp;nbsp; &amp;nbsp; &amp;nbsp; &amp;nbsp; &quot;bet_configurations&quot;: [&lt;/div&gt;&lt;div&gt;&amp;nbsp; &amp;nbsp; &amp;nbsp; &amp;nbsp; &amp;nbsp; &amp;nbsp; &amp;nbsp; &amp;nbsp; {&lt;/div&gt;&lt;div&gt;&amp;nbsp; &amp;nbsp; &amp;nbsp; &amp;nbsp; &amp;nbsp; &amp;nbsp; &amp;nbsp; &amp;nbsp; &amp;nbsp; &amp;nbsp; &quot;currency&quot;: &quot;CNY&quot;,&lt;/div&gt;&lt;div&gt;&amp;nbsp; &amp;nbsp; &amp;nbsp; &amp;nbsp; &amp;nbsp; &amp;nbsp; &amp;nbsp; &amp;nbsp; &amp;nbsp; &amp;nbsp; &quot;bet_configuration_id&quot;: 3670,&lt;/div&gt;&lt;div&gt;&amp;nbsp; &amp;nbsp; &amp;nbsp; &amp;nbsp; &amp;nbsp; &amp;nbsp; &amp;nbsp; &amp;nbsp; &amp;nbsp; &amp;nbsp; &quot;game_odds_type_id&quot;: 750,&lt;/div&gt;&lt;div&gt;&amp;nbsp; &amp;nbsp; &amp;nbsp; &amp;nbsp; &amp;nbsp; &amp;nbsp; &amp;nbsp; &amp;nbsp; &amp;nbsp; &amp;nbsp; &quot;min_bet&quot;: 2,&lt;/div&gt;&lt;div&gt;&amp;nbsp; &amp;nbsp; &amp;nbsp; &amp;nbsp; &amp;nbsp; &amp;nbsp; &amp;nbsp; &amp;nbsp; &amp;nbsp; &amp;nbsp; &quot;max_bet&quot;: 100000,&lt;/div&gt;&lt;div&gt;&amp;nbsp; &amp;nbsp; &amp;nbsp; &amp;nbsp; &amp;nbsp; &amp;nbsp; &amp;nbsp; &amp;nbsp; &amp;nbsp; &amp;nbsp; &quot;max_bet_per_term&quot;: 500000&lt;/div&gt;&lt;div&gt;&amp;nbsp; &amp;nbsp; &amp;nbsp; &amp;nbsp; &amp;nbsp; &amp;nbsp; &amp;nbsp; &amp;nbsp; }&lt;/div&gt;&lt;div&gt;&amp;nbsp; &amp;nbsp; &amp;nbsp; &amp;nbsp; &amp;nbsp; &amp;nbsp; ]&lt;/div&gt;&lt;div&gt;&amp;nbsp; &amp;nbsp; &amp;nbsp; &amp;nbsp; }&lt;/div&gt;&lt;div&gt;&amp;nbsp; &amp;nbsp; ]&lt;/div&gt;&lt;div&gt;}&lt;/div&gt;" style="text;overflow=hidden;rounded=0;whiteSpace=wrap;fillColor=#bac8d3;strokeColor=#23445d;html=1;" parent="RhFKpbfhdEMoOrh1-Fe3-15" vertex="1">
          <mxGeometry x="10" y="697.6" width="390" height="360" as="geometry" />
        </mxCell>
        <mxCell id="12gwARSlPllt_peua3XU-9" value="// message: in-game config&lt;br&gt;&lt;div&gt;{&lt;/div&gt;&lt;div&gt;&amp;nbsp; &amp;nbsp; &quot;game_id&quot;: 86, // mapped to api-sys&lt;/div&gt;&lt;div&gt;&amp;nbsp; &amp;nbsp; &quot;game_state&quot;: &quot;ingame&quot;,&lt;/div&gt;&lt;div&gt;&amp;nbsp; &amp;nbsp; &quot;merchant_id&quot;: 2,&lt;/div&gt;&lt;div&gt;&amp;nbsp; &amp;nbsp; &quot;ranking&quot;: 3,&lt;/div&gt;&lt;div&gt;&amp;nbsp; &amp;nbsp; &quot;term&quot;: 9576600,&lt;/div&gt;&lt;div&gt;&amp;nbsp; &amp;nbsp; &quot;data&quot;: [&lt;/div&gt;&lt;div&gt;&amp;nbsp; &amp;nbsp; &amp;nbsp; &amp;nbsp; {&lt;/div&gt;&lt;div&gt;&amp;nbsp; &amp;nbsp; &amp;nbsp; &amp;nbsp; &amp;nbsp; &amp;nbsp; &quot;game_odds_type_id&quot;: 1002,&amp;nbsp;&lt;span style=&quot;background-color: initial;&quot;&gt;// mapped to api-sys&lt;/span&gt;&lt;/div&gt;&lt;div&gt;&amp;nbsp; &amp;nbsp; &amp;nbsp; &amp;nbsp; &amp;nbsp; &amp;nbsp; &quot;type_key&quot;: &quot;YLBA-SJ&quot;,&amp;nbsp;&lt;span style=&quot;background-color: initial;&quot;&gt;// mapped to api-sys&lt;/span&gt;&lt;/div&gt;&lt;div&gt;&amp;nbsp; &amp;nbsp; &amp;nbsp; &amp;nbsp; &amp;nbsp; &amp;nbsp; &quot;odds&quot;: [&lt;/div&gt;&lt;div&gt;&amp;nbsp; &amp;nbsp; &amp;nbsp; &amp;nbsp; &amp;nbsp; &amp;nbsp; &amp;nbsp; &amp;nbsp; {&lt;/div&gt;&lt;div&gt;&amp;nbsp; &amp;nbsp; &amp;nbsp; &amp;nbsp; &amp;nbsp; &amp;nbsp; &amp;nbsp; &amp;nbsp; &amp;nbsp; &amp;nbsp; &quot;name&quot;: &quot;[秋名山] - [时间 - 季军-多于 - 3]&quot;, // reference only&lt;/div&gt;&lt;div&gt;&amp;nbsp; &amp;nbsp; &amp;nbsp; &amp;nbsp; &amp;nbsp; &amp;nbsp; &amp;nbsp; &amp;nbsp; &amp;nbsp; &amp;nbsp; &quot;odds_type_lot&quot;: 5,&amp;nbsp;&lt;span style=&quot;background-color: initial;&quot;&gt;// mapped to api-sys&lt;/span&gt;&lt;/div&gt;&lt;div&gt;&amp;nbsp; &amp;nbsp; &amp;nbsp; &amp;nbsp; &amp;nbsp; &amp;nbsp; &amp;nbsp; &amp;nbsp; &amp;nbsp; &amp;nbsp; &quot;odds_type_lot_key&quot;: &quot;YLBA-SJ-3-O&quot;,&amp;nbsp;&lt;span style=&quot;background-color: initial;&quot;&gt;// mapped to api-sys&lt;/span&gt;&lt;/div&gt;&lt;div&gt;&amp;nbsp; &amp;nbsp; &amp;nbsp; &amp;nbsp; &amp;nbsp; &amp;nbsp; &amp;nbsp; &amp;nbsp; &amp;nbsp; &amp;nbsp; &quot;odds&quot;: 0.325,&lt;/div&gt;&lt;div&gt;&amp;nbsp; &amp;nbsp; &amp;nbsp; &amp;nbsp; &amp;nbsp; &amp;nbsp; &amp;nbsp; &amp;nbsp; &amp;nbsp; &amp;nbsp; &quot;is_frozen&quot;: false,&lt;/div&gt;&lt;div&gt;&amp;nbsp; &amp;nbsp; &amp;nbsp; &amp;nbsp; &amp;nbsp; &amp;nbsp; &amp;nbsp; &amp;nbsp; &amp;nbsp; &amp;nbsp; &quot;is_paused&quot;: false,&lt;/div&gt;&lt;div&gt;&amp;nbsp; &amp;nbsp; &amp;nbsp; &amp;nbsp; &amp;nbsp; &amp;nbsp; &amp;nbsp; &amp;nbsp; &amp;nbsp; &amp;nbsp; &quot;is_active&quot;: true&lt;/div&gt;&lt;div&gt;&amp;nbsp; &amp;nbsp; &amp;nbsp; &amp;nbsp; &amp;nbsp; &amp;nbsp; &amp;nbsp; &amp;nbsp; }&lt;/div&gt;&lt;div&gt;&amp;nbsp; &amp;nbsp; &amp;nbsp; &amp;nbsp; &amp;nbsp; &amp;nbsp; ]&lt;/div&gt;&lt;div&gt;&amp;nbsp; &amp;nbsp; &amp;nbsp; &amp;nbsp; }&lt;/div&gt;&lt;div&gt;&amp;nbsp; &amp;nbsp; ]&lt;/div&gt;&lt;div&gt;}&lt;/div&gt;" style="text;overflow=hidden;rounded=0;whiteSpace=wrap;fillColor=#bac8d3;strokeColor=#23445d;html=1;" parent="RhFKpbfhdEMoOrh1-Fe3-15" vertex="1">
          <mxGeometry x="10" y="1067.6" width="390" height="370" as="geometry" />
        </mxCell>
        <mxCell id="12gwARSlPllt_peua3XU-11" value="&lt;div&gt;{&lt;/div&gt;&lt;div&gt;&amp;nbsp; &amp;nbsp; &quot;event&quot;: &quot;message&quot;,&lt;/div&gt;&lt;div&gt;&amp;nbsp; &amp;nbsp; &quot;data&quot;: &quot;{\&quot;ingameOddsTypeId\&quot;:339293,\&quot;amount\&quot;:100,\&quot;odds\&quot;:1.92,\&quot;raceTrackId\&quot;:\&quot;C\&quot;}&quot;&lt;/div&gt;&lt;div&gt;}&lt;br&gt;&lt;br&gt;// Amount is always in USD.&lt;/div&gt;" style="text;overflow=hidden;rounded=0;whiteSpace=wrap;fillColor=#bac8d3;strokeColor=#23445d;html=1;" parent="RhFKpbfhdEMoOrh1-Fe3-15" vertex="1">
          <mxGeometry x="10" y="1527.6" width="530" height="110" as="geometry" />
        </mxCell>
        <mxCell id="12gwARSlPllt_peua3XU-12" value="&lt;div&gt;wss://api-dev.odds988.com/bets?raceTrackId={raceTrackId}&amp;amp;token={token}&lt;br&gt;wss://api-stg.odds988.com/bets?raceTrackId={raceTrackId}&amp;amp;token={token}&lt;br&gt;wss://api.odds988.com/bets?raceTrackId={raceTrackId}&amp;amp;token={token}&lt;br&gt;&lt;/div&gt;" style="text;html=1;align=left;verticalAlign=middle;whiteSpace=wrap;rounded=0;" parent="RhFKpbfhdEMoOrh1-Fe3-15" vertex="1">
          <mxGeometry x="10" y="1477.6" width="690" height="30" as="geometry" />
        </mxCell>
        <mxCell id="12gwARSlPllt_peua3XU-34" value="https://api-dev.odds988.com/sse&lt;br&gt;https://api-stg.odds988.com/sse&lt;br&gt;https://api.odds988.com/sse" style="text;align=left;verticalAlign=middle;whiteSpace=wrap;rounded=0;html=1;" parent="RhFKpbfhdEMoOrh1-Fe3-15" vertex="1">
          <mxGeometry x="10" y="267.6" width="220" height="60" as="geometry" />
        </mxCell>
        <mxCell id="_XhJAt9xaV3MbSmSUqA4-25" value="ApisysBetsSseConnection" style="rounded=0;whiteSpace=wrap;html=1;" parent="RhFKpbfhdEMoOrh1-Fe3-15" vertex="1">
          <mxGeometry x="510" y="127.6" width="201.3" height="60" as="geometry" />
        </mxCell>
        <mxCell id="RhFKpbfhdEMoOrh1-Fe3-20" value="dhhyyp&amp;nbsp;&amp;nbsp;(external）" style="swimlane;whiteSpace=wrap;html=1;startSize=23;" parent="1" vertex="1">
          <mxGeometry x="1020" y="260" width="640" height="592.4" as="geometry" />
        </mxCell>
        <mxCell id="RhFKpbfhdEMoOrh1-Fe3-21" value="{&lt;br&gt;&amp;nbsp; &amp;nbsp; &quot;raceTrackID&quot;: &quot;A&quot;,&lt;br&gt;&amp;nbsp; &amp;nbsp; &quot;term&quot;: &quot;9575903&quot;,&lt;br&gt;&amp;nbsp; &amp;nbsp; &quot;result&quot;: [&lt;br&gt;&amp;nbsp; &amp;nbsp; &amp;nbsp; &amp;nbsp; {&lt;br&gt;&amp;nbsp; &amp;nbsp; &amp;nbsp; &amp;nbsp; &amp;nbsp; &amp;nbsp; &quot;pm&quot;: 1, // Placement (排名)&lt;br&gt;&amp;nbsp; &amp;nbsp; &amp;nbsp; &amp;nbsp; &amp;nbsp; &amp;nbsp; &quot;id&quot;: 10, // Marble Number&lt;br&gt;&amp;nbsp; &amp;nbsp; &amp;nbsp; &amp;nbsp; &amp;nbsp; &amp;nbsp; &quot;x&quot;: 115, // X coordinate&lt;br&gt;&amp;nbsp; &amp;nbsp; &amp;nbsp; &amp;nbsp; &amp;nbsp; &amp;nbsp; &quot;y&quot;: 620, // Y coordinate&lt;br&gt;&amp;nbsp; &amp;nbsp; &amp;nbsp; &amp;nbsp; &amp;nbsp; &amp;nbsp; &quot;b&quot;: 80, // Completion Percentage (%)&lt;br&gt;&amp;nbsp; &amp;nbsp; &amp;nbsp; &amp;nbsp; &amp;nbsp; &amp;nbsp; &quot;t&quot;: 49000, // Time since race started&lt;br&gt;&amp;nbsp; &amp;nbsp; &amp;nbsp; &amp;nbsp; &amp;nbsp; &amp;nbsp; &quot;j&quot;: 23840, // Distance travelled&lt;br&gt;&amp;nbsp; &amp;nbsp; &amp;nbsp; &amp;nbsp; &amp;nbsp; &amp;nbsp; &quot;hex&quot;: &quot;#f5f1e5&quot; // Marble Color Code&lt;br&gt;&amp;nbsp; &amp;nbsp; &amp;nbsp; &amp;nbsp; },&lt;br&gt;&lt;span style=&quot;white-space: pre;&quot;&gt;&#x9;&lt;/span&gt;...&lt;br&gt;&amp;nbsp; &amp;nbsp; ],&lt;br&gt;&amp;nbsp; &amp;nbsp; &quot;timestamp&quot;: 1726456671,&amp;nbsp;&lt;br&gt;&amp;nbsp; &amp;nbsp; &quot;betLock&quot;: {&lt;br&gt;&amp;nbsp; &amp;nbsp; &amp;nbsp; &amp;nbsp; &quot;preGame&quot;: 0,&lt;br&gt;&amp;nbsp; &amp;nbsp; &amp;nbsp; &amp;nbsp; &quot;inGame&quot;: 1,&lt;br&gt;&lt;span style=&quot;background-color: initial;&quot;&gt;&amp;nbsp; &amp;nbsp; &amp;nbsp; &amp;nbsp; &quot;reason&quot;: [&lt;/span&gt;&lt;br&gt;&lt;span style=&quot;background-color: initial;&quot;&gt;&amp;nbsp; &amp;nbsp; &amp;nbsp; &amp;nbsp; &amp;nbsp; &amp;nbsp; {&lt;/span&gt;&lt;br&gt;&lt;span style=&quot;background-color: initial;&quot;&gt;&amp;nbsp; &amp;nbsp; &amp;nbsp; &amp;nbsp; &amp;nbsp; &amp;nbsp; &amp;nbsp; &amp;nbsp; &quot;code&quot;: 10002,&lt;/span&gt;&lt;br&gt;&lt;span style=&quot;background-color: initial;&quot;&gt;&amp;nbsp; &amp;nbsp; &amp;nbsp; &amp;nbsp; &amp;nbsp; &amp;nbsp; &amp;nbsp; &amp;nbsp; &quot;text&quot;: &quot;First place and second place distance too far. Threshold is 10cm. Distance difference is 11.92cm occur at 1.141 seconds into the race.&quot;&lt;/span&gt;&lt;br&gt;&lt;span style=&quot;background-color: initial;&quot;&gt;&amp;nbsp; &amp;nbsp; &amp;nbsp; &amp;nbsp; &amp;nbsp; &amp;nbsp; },&lt;/span&gt;&lt;br&gt;&lt;span style=&quot;background-color: initial;&quot;&gt;&amp;nbsp; &amp;nbsp; &amp;nbsp; &amp;nbsp; &amp;nbsp; &amp;nbsp; {&lt;/span&gt;&lt;br&gt;&lt;span style=&quot;background-color: initial;&quot;&gt;&amp;nbsp; &amp;nbsp; &amp;nbsp; &amp;nbsp; &amp;nbsp; &amp;nbsp; &amp;nbsp; &amp;nbsp; &quot;code&quot;: 10001,&lt;/span&gt;&lt;br&gt;&lt;span style=&quot;background-color: initial;&quot;&gt;&amp;nbsp; &amp;nbsp; &amp;nbsp; &amp;nbsp; &amp;nbsp; &amp;nbsp; &amp;nbsp; &amp;nbsp; &quot;text&quot;: &quot;Race reached bet lock time. Threshold is 45 seconds.&quot;&lt;/span&gt;&lt;br&gt;&amp;nbsp; &amp;nbsp; &amp;nbsp; &amp;nbsp; &amp;nbsp; &amp;nbsp; },&lt;div&gt;&lt;span style=&quot;white-space: pre;&quot;&gt;&#x9;    ...&lt;/span&gt;&lt;br&gt;&amp;nbsp; &amp;nbsp; &amp;nbsp; &amp;nbsp; ]&lt;br&gt;&amp;nbsp; &amp;nbsp; }&lt;br&gt;}&lt;/div&gt;" style="text;overflow=hidden;rounded=0;whiteSpace=wrap;html=1;fillColor=#bac8d3;strokeColor=#23445d;" parent="RhFKpbfhdEMoOrh1-Fe3-20" vertex="1">
          <mxGeometry x="10" y="70" width="620" height="510" as="geometry" />
        </mxCell>
        <UserObject label="wss://ws.dhhyyp.com/live?token=" link="&#xa;&lt;div style=&quot;color: #cccccc;background-color: #1f1f1f;font-family: Consolas, &#39;Courier New&#39;, monospace;font-weight: normal;font-size: 14px;line-height: 19px;white-space: pre;&quot;&gt;&lt;div&gt;&lt;span style=&quot;color: #cccccc;&quot;&gt;wss://ws.dhhyyp.com/live?&lt;/span&gt;&lt;span style=&quot;color: #569cd6;&quot;&gt;token&lt;/span&gt;&lt;span style=&quot;color: #cccccc;&quot;&gt;=&lt;/span&gt;&lt;/div&gt;&lt;/div&gt;&#xa;&#xa;" id="RhFKpbfhdEMoOrh1-Fe3-22">
          <mxCell style="text;align=left;verticalAlign=middle;whiteSpace=wrap;rounded=0;html=1;" parent="RhFKpbfhdEMoOrh1-Fe3-20" vertex="1">
            <mxGeometry x="10" y="30" width="250" height="30" as="geometry" />
          </mxCell>
        </UserObject>
        <mxCell id="RhFKpbfhdEMoOrh1-Fe3-24" value="&lt;h1 style=&quot;margin-top: 0px;&quot;&gt;Odds-sys&lt;/h1&gt;&lt;p&gt;Backend odds-configuration platform for Marble Magic&lt;/p&gt;" style="text;html=1;whiteSpace=wrap;overflow=hidden;rounded=0;" parent="1" vertex="1">
          <mxGeometry x="-180" y="80" width="320" height="90" as="geometry" />
        </mxCell>
        <mxCell id="RhFKpbfhdEMoOrh1-Fe3-25" value="v2.Kaj789.com&amp;nbsp;&amp;nbsp;(external）" style="swimlane;whiteSpace=wrap;html=1;startSize=23;" parent="1" vertex="1">
          <mxGeometry x="1020" y="932.4" width="640" height="910" as="geometry" />
        </mxCell>
        <mxCell id="RhFKpbfhdEMoOrh1-Fe3-26" value="{&lt;br&gt;&amp;nbsp; &amp;nbsp; &quot;name&quot;: &quot;C&quot;, // equivalent to raceTrackId.&lt;br&gt;&amp;nbsp; &amp;nbsp; &quot;number&quot;: &quot;2,10,3,7,4,1,9,5,8,6&quot;, // Results (race finished). If this is empty, race is not finished.&lt;br&gt;&amp;nbsp; &amp;nbsp; &quot;term&quot;: 9570988,&lt;br&gt;&amp;nbsp; &amp;nbsp; &quot;betopen&quot;: {&lt;br&gt;&amp;nbsp; &amp;nbsp; &amp;nbsp; &amp;nbsp; &quot;unixtime&quot;: 1726457351,&lt;br&gt;&amp;nbsp; &amp;nbsp; &amp;nbsp; &amp;nbsp; &quot;datetime&quot;: &quot;September 16, 2024 at 11:29:11 AM GMT+8&quot;&lt;br&gt;&amp;nbsp; &amp;nbsp; },&lt;br&gt;&amp;nbsp; &amp;nbsp; &quot;resultopen&quot;: {&lt;br&gt;&amp;nbsp; &amp;nbsp; &amp;nbsp; &amp;nbsp; &quot;unixtime&quot;: 1726457254,&lt;br&gt;&amp;nbsp; &amp;nbsp; &amp;nbsp; &amp;nbsp; &quot;datetime&quot;: &quot;September 16, 2024 at 11:27:34 AM GMT+8&quot;&lt;br&gt;&amp;nbsp; &amp;nbsp; },&lt;br&gt;&amp;nbsp; &amp;nbsp; &quot;timings&quot;: &quot;[{\&quot;pm\&quot;:1,\&quot;time\&quot;:76.64,\&quot;id\&quot;:2},{\&quot;pm\&quot;:2,\&quot;time\&quot;:77.14,\&quot;id\&quot;:10},{\&quot;pm\&quot;:3,\&quot;time\&quot;:79.34,\&quot;id\&quot;:3},{\&quot;pm\&quot;:4,\&quot;time\&quot;:79.68000000000001,\&quot;id\&quot;:7},{\&quot;pm\&quot;:5,\&quot;time\&quot;:79.98,\&quot;id\&quot;:4},{\&quot;pm\&quot;:6,\&quot;time\&quot;:81.5,\&quot;id\&quot;:1},{\&quot;pm\&quot;:7,\&quot;time\&quot;:82.09,\&quot;id\&quot;:9},{\&quot;pm\&quot;:8,\&quot;time\&quot;:82.31,\&quot;id\&quot;:5},{\&quot;pm\&quot;:9,\&quot;time\&quot;:83.34,\&quot;id\&quot;:8},{\&quot;pm\&quot;:10,\&quot;time\&quot;:86.87000000000001,\&quot;id\&quot;:6}]&quot;,&lt;br&gt;&amp;nbsp; &amp;nbsp; &quot;next&quot;: [&lt;br&gt;&amp;nbsp; &amp;nbsp; &amp;nbsp; &amp;nbsp; {&lt;br&gt;&amp;nbsp; &amp;nbsp; &amp;nbsp; &amp;nbsp; &amp;nbsp; &amp;nbsp; &quot;term&quot;: 9570989,&lt;br&gt;&amp;nbsp; &amp;nbsp; &amp;nbsp; &amp;nbsp; &amp;nbsp; &amp;nbsp; &quot;betopen&quot;: {&lt;br&gt;&amp;nbsp; &amp;nbsp; &amp;nbsp; &amp;nbsp; &amp;nbsp; &amp;nbsp; &amp;nbsp; &amp;nbsp; &quot;unixtime&quot;: 1726457254,&lt;br&gt;&amp;nbsp; &amp;nbsp; &amp;nbsp; &amp;nbsp; &amp;nbsp; &amp;nbsp; &amp;nbsp; &amp;nbsp; &quot;datetime&quot;: &quot;September 16, 2024 at 11:27:34 AM GMT+8&quot;&lt;br&gt;&amp;nbsp; &amp;nbsp; &amp;nbsp; &amp;nbsp; &amp;nbsp; &amp;nbsp; },&lt;br&gt;&amp;nbsp; &amp;nbsp; &amp;nbsp; &amp;nbsp; &amp;nbsp; &amp;nbsp; &quot;resultopen&quot;: {&lt;br&gt;&amp;nbsp; &amp;nbsp; &amp;nbsp; &amp;nbsp; &amp;nbsp; &amp;nbsp; &amp;nbsp; &amp;nbsp; &quot;unixtime&quot;: 1726457434,&lt;br&gt;&amp;nbsp; &amp;nbsp; &amp;nbsp; &amp;nbsp; &amp;nbsp; &amp;nbsp; &amp;nbsp; &amp;nbsp; &quot;datetime&quot;: &quot;September 16, 2024 at 11:30:34 AM GMT+8&quot;&lt;br&gt;&amp;nbsp; &amp;nbsp; &amp;nbsp; &amp;nbsp; &amp;nbsp; &amp;nbsp; }&lt;br&gt;&amp;nbsp; &amp;nbsp; &amp;nbsp; &amp;nbsp; },&lt;br&gt;&amp;nbsp; &amp;nbsp; &amp;nbsp; &amp;nbsp; {&lt;br&gt;&amp;nbsp; &amp;nbsp; &amp;nbsp; &amp;nbsp; &amp;nbsp; &amp;nbsp; &quot;term&quot;: 9570990,&lt;br&gt;&amp;nbsp; &amp;nbsp; &amp;nbsp; &amp;nbsp; &amp;nbsp; &amp;nbsp; &quot;betopen&quot;: {&lt;br&gt;&amp;nbsp; &amp;nbsp; &amp;nbsp; &amp;nbsp; &amp;nbsp; &amp;nbsp; &amp;nbsp; &amp;nbsp; &quot;unixtime&quot;: 1726457434,&lt;br&gt;&amp;nbsp; &amp;nbsp; &amp;nbsp; &amp;nbsp; &amp;nbsp; &amp;nbsp; &amp;nbsp; &amp;nbsp; &quot;datetime&quot;: &quot;September 16, 2024 at 11:30:34 AM GMT+8&quot;&lt;br&gt;&amp;nbsp; &amp;nbsp; &amp;nbsp; &amp;nbsp; &amp;nbsp; &amp;nbsp; },&lt;br&gt;&amp;nbsp; &amp;nbsp; &amp;nbsp; &amp;nbsp; &amp;nbsp; &amp;nbsp; &quot;resultopen&quot;: {&lt;br&gt;&amp;nbsp; &amp;nbsp; &amp;nbsp; &amp;nbsp; &amp;nbsp; &amp;nbsp; &amp;nbsp; &amp;nbsp; &quot;unixtime&quot;: 1726457614,&lt;br&gt;&amp;nbsp; &amp;nbsp; &amp;nbsp; &amp;nbsp; &amp;nbsp; &amp;nbsp; &amp;nbsp; &amp;nbsp; &quot;datetime&quot;: &quot;September 16, 2024 at 11:33:34 AM GMT+8&quot;&lt;br&gt;&amp;nbsp; &amp;nbsp; &amp;nbsp; &amp;nbsp; &amp;nbsp; &amp;nbsp; }&lt;br&gt;&amp;nbsp; &amp;nbsp; &amp;nbsp; &amp;nbsp; },&lt;br&gt;&amp;nbsp; &amp;nbsp; &amp;nbsp; &amp;nbsp; {&lt;br&gt;&amp;nbsp; &amp;nbsp; &amp;nbsp; &amp;nbsp; &amp;nbsp; &amp;nbsp; &quot;term&quot;: 9570991,&lt;br&gt;&amp;nbsp; &amp;nbsp; &amp;nbsp; &amp;nbsp; &amp;nbsp; &amp;nbsp; &quot;betopen&quot;: {&lt;br&gt;&amp;nbsp; &amp;nbsp; &amp;nbsp; &amp;nbsp; &amp;nbsp; &amp;nbsp; &amp;nbsp; &amp;nbsp; &quot;unixtime&quot;: 1726457614,&lt;br&gt;&amp;nbsp; &amp;nbsp; &amp;nbsp; &amp;nbsp; &amp;nbsp; &amp;nbsp; &amp;nbsp; &amp;nbsp; &quot;datetime&quot;: &quot;September 16, 2024 at 11:33:34 AM GMT+8&quot;&lt;br&gt;&amp;nbsp; &amp;nbsp; &amp;nbsp; &amp;nbsp; &amp;nbsp; &amp;nbsp; },&lt;br&gt;&amp;nbsp; &amp;nbsp; &amp;nbsp; &amp;nbsp; &amp;nbsp; &amp;nbsp; &quot;resultopen&quot;: {&lt;br&gt;&amp;nbsp; &amp;nbsp; &amp;nbsp; &amp;nbsp; &amp;nbsp; &amp;nbsp; &amp;nbsp; &amp;nbsp; &quot;unixtime&quot;: 1726457794,&lt;br&gt;&amp;nbsp; &amp;nbsp; &amp;nbsp; &amp;nbsp; &amp;nbsp; &amp;nbsp; &amp;nbsp; &amp;nbsp; &quot;datetime&quot;: &quot;September 16, 2024 at 11:36:34 AM GMT+8&quot;&lt;br&gt;&amp;nbsp; &amp;nbsp; &amp;nbsp; &amp;nbsp; &amp;nbsp; &amp;nbsp; }&lt;br&gt;&amp;nbsp; &amp;nbsp; &amp;nbsp; &amp;nbsp; }&lt;br&gt;&amp;nbsp; &amp;nbsp; ],&lt;br&gt;&amp;nbsp; &amp;nbsp; &quot;status&quot;: true,&lt;br&gt;&amp;nbsp; &amp;nbsp; &quot;endStatus&quot;: 1,&lt;br&gt;&amp;nbsp; &amp;nbsp; &quot;dx&quot;: &quot;小,大,小,大,小,小,大,小,大,大&quot;,&lt;br&gt;&amp;nbsp; &amp;nbsp; &quot;ds&quot;: &quot;双,双,单,单,双,单,单,单,双,双&quot;&lt;br&gt;}" style="text;overflow=hidden;rounded=0;whiteSpace=wrap;fillColor=#bac8d3;strokeColor=#23445d;html=1;" parent="RhFKpbfhdEMoOrh1-Fe3-25" vertex="1">
          <mxGeometry x="10" y="70" width="620" height="830" as="geometry" />
        </mxCell>
        <UserObject label="https://v2.kaj789.com/sse" link="&#xa;&lt;div style=&quot;color: #cccccc;background-color: #1f1f1f;font-family: Consolas, &#39;Courier New&#39;, monospace;font-weight: normal;font-size: 14px;line-height: 19px;white-space: pre;&quot;&gt;&lt;div&gt;&lt;span style=&quot;color: #cccccc;&quot;&gt;wss://ws.dhhyyp.com/live?&lt;/span&gt;&lt;span style=&quot;color: #569cd6;&quot;&gt;token&lt;/span&gt;&lt;span style=&quot;color: #cccccc;&quot;&gt;=&lt;/span&gt;&lt;/div&gt;&lt;/div&gt;&#xa;&#xa;" id="RhFKpbfhdEMoOrh1-Fe3-27">
          <mxCell style="text;align=left;verticalAlign=middle;whiteSpace=wrap;rounded=0;html=1;" parent="RhFKpbfhdEMoOrh1-Fe3-25" vertex="1">
            <mxGeometry x="10" y="30" width="250" height="30" as="geometry" />
          </mxCell>
        </UserObject>
        <mxCell id="RhFKpbfhdEMoOrh1-Fe3-29" style="edgeStyle=orthogonalEdgeStyle;rounded=0;orthogonalLoop=1;jettySize=auto;html=1;exitX=0;exitY=0.5;exitDx=0;exitDy=0;entryX=1;entryY=0.5;entryDx=0;entryDy=0;verticalAlign=middle;" parent="1" source="RhFKpbfhdEMoOrh1-Fe3-22" target="RhFKpbfhdEMoOrh1-Fe3-16" edge="1">
          <mxGeometry relative="1" as="geometry">
            <Array as="points">
              <mxPoint x="1000" y="305" />
              <mxPoint x="1000" y="510" />
            </Array>
          </mxGeometry>
        </mxCell>
        <mxCell id="RhFKpbfhdEMoOrh1-Fe3-30" style="edgeStyle=orthogonalEdgeStyle;rounded=0;orthogonalLoop=1;jettySize=auto;html=1;exitX=0;exitY=0.5;exitDx=0;exitDy=0;entryX=1;entryY=0.5;entryDx=0;entryDy=0;" parent="1" source="RhFKpbfhdEMoOrh1-Fe3-27" target="RhFKpbfhdEMoOrh1-Fe3-17" edge="1">
          <mxGeometry relative="1" as="geometry" />
        </mxCell>
        <mxCell id="12gwARSlPllt_peua3XU-16" value="odds-sys-frontend" style="swimlane;whiteSpace=wrap;html=1;startSize=23;" parent="1" vertex="1">
          <mxGeometry x="-180" y="801" width="330" height="390" as="geometry" />
        </mxCell>
        <mxCell id="12gwARSlPllt_peua3XU-17" value="BackendBetsWebsocketService" style="rounded=0;whiteSpace=wrap;html=1;" parent="12gwARSlPllt_peua3XU-16" vertex="1">
          <mxGeometry x="100" y="200" width="201.3" height="60" as="geometry" />
        </mxCell>
        <mxCell id="12gwARSlPllt_peua3XU-18" value="BackendSseService" style="rounded=0;whiteSpace=wrap;html=1;" parent="12gwARSlPllt_peua3XU-16" vertex="1">
          <mxGeometry x="100" y="120" width="201.3" height="60" as="geometry" />
        </mxCell>
        <mxCell id="12gwARSlPllt_peua3XU-29" style="edgeStyle=orthogonalEdgeStyle;rounded=0;orthogonalLoop=1;jettySize=auto;html=1;exitX=0;exitY=0.5;exitDx=0;exitDy=0;entryX=1;entryY=0.5;entryDx=0;entryDy=0;" parent="1" source="12gwARSlPllt_peua3XU-12" target="12gwARSlPllt_peua3XU-17" edge="1">
          <mxGeometry relative="1" as="geometry" />
        </mxCell>
        <mxCell id="12gwARSlPllt_peua3XU-27" value="" style="image;points=[];aspect=fixed;html=1;align=center;shadow=0;dashed=0;image=img/lib/allied_telesis/computer_and_terminals/Laptop.svg;" parent="1" vertex="1">
          <mxGeometry x="-170" y="750" width="42" height="42.599999999999994" as="geometry" />
        </mxCell>
        <mxCell id="RhFKpbfhdEMoOrh1-Fe3-19" value="" style="image;points=[];aspect=fixed;html=1;align=center;shadow=0;dashed=0;image=img/lib/allied_telesis/computer_and_terminals/Server_Desktop.svg;fontSize=13;" parent="1" vertex="1">
          <mxGeometry x="230" y="210" width="34.71" height="44" as="geometry" />
        </mxCell>
        <mxCell id="12gwARSlPllt_peua3XU-30" value="" style="image;points=[];aspect=fixed;html=1;align=center;shadow=0;dashed=0;image=img/lib/allied_telesis/computer_and_terminals/Server_Desktop.svg;fontSize=13;" parent="1" vertex="1">
          <mxGeometry x="1020" y="210.70000000000005" width="34.71" height="44" as="geometry" />
        </mxCell>
        <mxCell id="12gwARSlPllt_peua3XU-32" value="" style="image;points=[];aspect=fixed;html=1;align=center;shadow=0;dashed=0;image=img/lib/allied_telesis/computer_and_terminals/Server_Desktop.svg;fontSize=13;" parent="1" vertex="1">
          <mxGeometry x="1030" y="882.4" width="34.71" height="44" as="geometry" />
        </mxCell>
        <mxCell id="_XhJAt9xaV3MbSmSUqA4-2" value="api-sys (external）" style="swimlane;whiteSpace=wrap;html=1;startSize=23;" parent="1" vertex="1">
          <mxGeometry x="-170" y="261" width="330" height="390" as="geometry" />
        </mxCell>
        <mxCell id="_XhJAt9xaV3MbSmSUqA4-9" value="Subscribed to:&lt;br&gt;message: pre-game odds config&lt;br&gt;message: pre-game currency config&lt;br&gt;message: in-game config" style="shape=parallelogram;perimeter=parallelogramPerimeter;whiteSpace=wrap;html=1;fixedSize=1;" parent="_XhJAt9xaV3MbSmSUqA4-2" vertex="1">
          <mxGeometry x="42" y="42.400000000000006" width="230" height="119" as="geometry" />
        </mxCell>
        <mxCell id="_XhJAt9xaV3MbSmSUqA4-6" value="" style="image;points=[];aspect=fixed;html=1;align=center;shadow=0;dashed=0;image=img/lib/allied_telesis/computer_and_terminals/Server_Desktop.svg;fontSize=13;" parent="1" vertex="1">
          <mxGeometry x="-170" y="210" width="34.71" height="44" as="geometry" />
        </mxCell>
        <mxCell id="_XhJAt9xaV3MbSmSUqA4-7" style="edgeStyle=orthogonalEdgeStyle;rounded=0;orthogonalLoop=1;jettySize=auto;html=1;exitX=0;exitY=0.5;exitDx=0;exitDy=0;entryX=1;entryY=0.5;entryDx=0;entryDy=0;" parent="1" source="RhFKpbfhdEMoOrh1-Fe3-18" target="_XhJAt9xaV3MbSmSUqA4-9" edge="1">
          <mxGeometry relative="1" as="geometry">
            <mxPoint x="95.65000000000009" y="331.70000000000005" as="targetPoint" />
          </mxGeometry>
        </mxCell>
        <mxCell id="_XhJAt9xaV3MbSmSUqA4-8" style="edgeStyle=orthogonalEdgeStyle;rounded=0;orthogonalLoop=1;jettySize=auto;html=1;exitX=0;exitY=0.5;exitDx=0;exitDy=0;entryX=1;entryY=0.5;entryDx=0;entryDy=0;" parent="1" source="RhFKpbfhdEMoOrh1-Fe3-18" target="12gwARSlPllt_peua3XU-18" edge="1">
          <mxGeometry relative="1" as="geometry">
            <Array as="points">
              <mxPoint x="190" y="324" />
              <mxPoint x="190" y="951" />
            </Array>
          </mxGeometry>
        </mxCell>
        <mxCell id="_XhJAt9xaV3MbSmSUqA4-11" value="api-sys (external）" style="swimlane;whiteSpace=wrap;html=1;startSize=23;" parent="1" vertex="1">
          <mxGeometry x="1020" y="-280" width="640" height="450" as="geometry" />
        </mxCell>
        <mxCell id="_XhJAt9xaV3MbSmSUqA4-12" value="&lt;div&gt;{&lt;/div&gt;&lt;div&gt;&amp;nbsp; &amp;nbsp; &quot;event&quot;: &quot;game_bet_details&quot;,&lt;/div&gt;&lt;div&gt;&amp;nbsp; &amp;nbsp; &quot;data&quot;: {&lt;/div&gt;&lt;div&gt;&amp;nbsp; &amp;nbsp; &amp;nbsp; &amp;nbsp; &quot;merchant_id&quot;: 2, // same as our merchant.id, should be same.&lt;/div&gt;&lt;div&gt;&amp;nbsp; &amp;nbsp; &amp;nbsp; &amp;nbsp; &quot;game_id&quot;: 86, // this is equivalent to our game_key_id, but the ids are different.&lt;/div&gt;&lt;div&gt;&amp;nbsp; &amp;nbsp; &amp;nbsp; &amp;nbsp; &quot;term&quot;: &quot;9576671&quot;,&lt;/div&gt;&lt;div&gt;&amp;nbsp; &amp;nbsp; &amp;nbsp; &amp;nbsp; &quot;currency&quot;: &quot;CNY&quot;,&amp;nbsp;&lt;/div&gt;&lt;div&gt;&amp;nbsp; &amp;nbsp; &amp;nbsp; &amp;nbsp; &quot;bets&quot;: [&lt;/div&gt;&lt;div&gt;&amp;nbsp; &amp;nbsp; &amp;nbsp; &amp;nbsp; &amp;nbsp; &amp;nbsp; {&lt;/div&gt;&lt;div&gt;&amp;nbsp; &amp;nbsp; &amp;nbsp; &amp;nbsp; &amp;nbsp; &amp;nbsp; &amp;nbsp; &amp;nbsp; &quot;bet_id&quot;: 101918,&lt;/div&gt;&lt;div&gt;&amp;nbsp; &amp;nbsp; &amp;nbsp; &amp;nbsp; &amp;nbsp; &amp;nbsp; &amp;nbsp; &amp;nbsp; &quot;odds_type_title&quot;: &quot;时间&quot;, // this is our type_name&lt;/div&gt;&lt;div&gt;&amp;nbsp; &amp;nbsp; &amp;nbsp; &amp;nbsp; &amp;nbsp; &amp;nbsp; &amp;nbsp; &amp;nbsp; &quot;game_odds_title&quot;: &quot;冠军-多于&quot;, // this is our lot_name (but with a ranking)&lt;/div&gt;&lt;div&gt;&amp;nbsp; &amp;nbsp; &amp;nbsp; &amp;nbsp; &amp;nbsp; &amp;nbsp; &amp;nbsp; &amp;nbsp; &quot;odds_type_lot_key&quot;: &quot;YLBA-SJ-1-O&quot;,&lt;/div&gt;&lt;div&gt;&amp;nbsp; &amp;nbsp; &amp;nbsp; &amp;nbsp; &amp;nbsp; &amp;nbsp; &amp;nbsp; &amp;nbsp; &quot;bet_amount&quot;: 100,&lt;/div&gt;&lt;div&gt;&amp;nbsp; &amp;nbsp; &amp;nbsp; &amp;nbsp; &amp;nbsp; &amp;nbsp; &amp;nbsp; &amp;nbsp; &quot;bet_odds&quot;: 1.9,&lt;/div&gt;&lt;div&gt;&amp;nbsp; &amp;nbsp; &amp;nbsp; &amp;nbsp; &amp;nbsp; &amp;nbsp; &amp;nbsp; &amp;nbsp; &quot;game_type_id&quot;: 13, // we also have game_type, but ids may be different.&lt;/div&gt;&lt;div&gt;&amp;nbsp; &amp;nbsp; &amp;nbsp; &amp;nbsp; &amp;nbsp; &amp;nbsp; &amp;nbsp; &amp;nbsp; &quot;game_category_id&quot;: 1, // we also have game_category, but ids may be different.&lt;/div&gt;&lt;div&gt;&amp;nbsp; &amp;nbsp; &amp;nbsp; &amp;nbsp; &amp;nbsp; &amp;nbsp; &amp;nbsp; &amp;nbsp; &quot;game_kjw_key&quot;: &quot;A&quot;, // this is our race_track_id.&lt;/div&gt;&lt;div&gt;&amp;nbsp; &amp;nbsp; &amp;nbsp; &amp;nbsp; &amp;nbsp; &amp;nbsp; &amp;nbsp; &amp;nbsp; &quot;type_key&quot;: &quot;YLBA-SJ&quot;&lt;/div&gt;&lt;div&gt;&amp;nbsp; &amp;nbsp; &amp;nbsp; &amp;nbsp; &amp;nbsp; &amp;nbsp; }&lt;/div&gt;&lt;div&gt;&amp;nbsp; &amp;nbsp; &amp;nbsp; &amp;nbsp; ]&lt;/div&gt;&lt;div&gt;&amp;nbsp; &amp;nbsp; }&lt;/div&gt;&lt;div&gt;}&lt;/div&gt;" style="text;overflow=hidden;rounded=0;whiteSpace=wrap;html=1;fillColor=#bac8d3;strokeColor=#23445d;" parent="_XhJAt9xaV3MbSmSUqA4-11" vertex="1">
          <mxGeometry x="10" y="70" width="620" height="360" as="geometry" />
        </mxCell>
        <UserObject label="https://stg-api-sys.stg4561.com/gm/bets/event/betDetails" link="&#xa;&lt;div style=&quot;color: #cccccc;background-color: #1f1f1f;font-family: Consolas, &#39;Courier New&#39;, monospace;font-weight: normal;font-size: 14px;line-height: 19px;white-space: pre;&quot;&gt;&lt;div&gt;&lt;span style=&quot;color: #cccccc;&quot;&gt;wss://ws.dhhyyp.com/live?&lt;/span&gt;&lt;span style=&quot;color: #569cd6;&quot;&gt;token&lt;/span&gt;&lt;span style=&quot;color: #cccccc;&quot;&gt;=&lt;/span&gt;&lt;/div&gt;&lt;/div&gt;&#xa;&#xa;" id="_XhJAt9xaV3MbSmSUqA4-13">
          <mxCell style="text;align=left;verticalAlign=middle;whiteSpace=wrap;rounded=0;html=1;" parent="_XhJAt9xaV3MbSmSUqA4-11" vertex="1">
            <mxGeometry x="10" y="30" width="400" height="30" as="geometry" />
          </mxCell>
        </UserObject>
        <mxCell id="_XhJAt9xaV3MbSmSUqA4-14" value="" style="image;points=[];aspect=fixed;html=1;align=center;shadow=0;dashed=0;image=img/lib/allied_telesis/computer_and_terminals/Server_Desktop.svg;fontSize=13;" parent="1" vertex="1">
          <mxGeometry x="1020" y="-340" width="34.71" height="44" as="geometry" />
        </mxCell>
        <mxCell id="_XhJAt9xaV3MbSmSUqA4-26" style="edgeStyle=orthogonalEdgeStyle;rounded=0;orthogonalLoop=1;jettySize=auto;html=1;exitX=1;exitY=0.5;exitDx=0;exitDy=0;entryX=0;entryY=0.5;entryDx=0;entryDy=0;" parent="1" source="_XhJAt9xaV3MbSmSUqA4-25" target="_XhJAt9xaV3MbSmSUqA4-13" edge="1">
          <mxGeometry relative="1" as="geometry">
            <Array as="points">
              <mxPoint x="980" y="420" />
              <mxPoint x="980" y="-235" />
            </Array>
          </mxGeometry>
        </mxCell>
        <mxCell id="6cosJ_ruShOTFv7M89cE-2" value="" style="rounded=0;whiteSpace=wrap;html=1;" vertex="1" parent="1">
          <mxGeometry x="-700" y="-1095" width="350" height="170" as="geometry" />
        </mxCell>
        <mxCell id="6cosJ_ruShOTFv7M89cE-3" value="Oddsys: odd-sys-backend/odd-sys-frontend&lt;br&gt;(View on: https://dev.odds988.com/settings/handicap)" style="text;html=1;align=center;verticalAlign=middle;whiteSpace=wrap;rounded=0;" vertex="1" parent="1">
          <mxGeometry x="-685" y="-1135" width="320" height="30" as="geometry" />
        </mxCell>
        <UserObject label="&lt;div style=&quot;font-family: Consolas, &amp;quot;Courier New&amp;quot;, monospace; font-weight: normal; font-size: 10px; line-height: 19px; white-space: pre;&quot;&gt;&lt;div style=&quot;font-size: 10px;&quot;&gt;&lt;span style=&quot;font-family: Helvetica; font-size: 12px; font-weight: 700; white-space: normal;&quot;&gt;https://api.kaj789.com/api/timingsJiange/${track}/1&lt;br&gt;&lt;div style=&quot;text-align: center;&quot;&gt;(from kai_api &amp;gt; kai)&lt;/div&gt;&lt;/span&gt;&lt;/div&gt;&lt;/div&gt;" link="&lt;div style=&quot;color: #cccccc;background-color: #1f1f1f;font-family: Consolas, &#39;Courier New&#39;, monospace;font-weight: normal;font-size: 14px;line-height: 19px;white-space: pre;&quot;&gt;&lt;div&gt;&lt;span style=&quot;color: #ce9178;&quot;&gt;https://api.kaj789.com/api/timingsInterval/&lt;/span&gt;&lt;span style=&quot;color: #569cd6;&quot;&gt;${&lt;/span&gt;&lt;span style=&quot;color: #4fc1ff;&quot;&gt;raceTrackId&lt;/span&gt;&lt;span style=&quot;color: #569cd6;&quot;&gt;}&lt;/span&gt;&lt;span style=&quot;color: #ce9178;&quot;&gt;/1&lt;/span&gt;&lt;/div&gt;&lt;/div&gt;" id="6cosJ_ruShOTFv7M89cE-5">
          <mxCell style="text;whiteSpace=wrap;html=1;fontSize=10;fontColor=default;labelBackgroundColor=default;" vertex="1" parent="1">
            <mxGeometry x="-670" y="-1075" width="315" height="45" as="geometry" />
          </mxCell>
        </UserObject>
        <mxCell id="6cosJ_ruShOTFv7M89cE-6" value="Used on handicap page to allow people to adjust the interval. Uses data from marble_jiange_timings data.&lt;br&gt;&lt;br&gt;Returns the latest available timings regardless of term." style="text;html=1;align=center;verticalAlign=middle;whiteSpace=wrap;rounded=0;" vertex="1" parent="1">
          <mxGeometry x="-685" y="-1018.75" width="320" height="52.5" as="geometry" />
        </mxCell>
        <mxCell id="6cosJ_ruShOTFv7M89cE-7" value="odd-sys-timings&lt;br&gt;(https://timing.odds988.com/{env}/{raceTrackId}/{term})" style="text;html=1;align=center;verticalAlign=middle;whiteSpace=wrap;rounded=0;" vertex="1" parent="1">
          <mxGeometry x="-280" y="-1135" width="320" height="30" as="geometry" />
        </mxCell>
        <UserObject label="Kai_Api &amp;gt; Kai (External KJW using, need to inform @Una and @allen zhang in PROJECT)&lt;br&gt;http://api.kaj789.com/api/kjwTimingsInterval/A/1/9593077" link="http://api.kaj789.com/api/kjwTimingsInterval/A/1/9593077" id="6cosJ_ruShOTFv7M89cE-8">
          <mxCell style="text;whiteSpace=wrap;html=1;align=center;" vertex="1" parent="1">
            <mxGeometry x="120" y="-1150" width="340" height="40" as="geometry" />
          </mxCell>
        </UserObject>
        <mxCell id="6cosJ_ruShOTFv7M89cE-9" value="" style="rounded=0;whiteSpace=wrap;html=1;" vertex="1" parent="1">
          <mxGeometry x="-295" y="-1095" width="350" height="170" as="geometry" />
        </mxCell>
        <mxCell id="6cosJ_ruShOTFv7M89cE-10" value="Forwarding marble_jiange_timings data + any custom interval set from merchants.&lt;br&gt;&lt;div&gt;&lt;br&gt;If term from marble_jiange_timings doesn&#39;t match term provided, will return empty.&lt;/div&gt;" style="text;html=1;align=center;verticalAlign=middle;whiteSpace=wrap;rounded=0;" vertex="1" parent="1">
          <mxGeometry x="-280" y="-1025" width="320" height="65" as="geometry" />
        </mxCell>
        <UserObject label="https://api.kaj789.com/api/timingsJiange/${track}/1/${term}&#xa;(from kai_api &gt; kai)" link="https://api.kaj789.com/api/timingsJiange/${track}/1/${term}" id="6cosJ_ruShOTFv7M89cE-11">
          <mxCell style="text;whiteSpace=wrap;fontStyle=1;align=center;" vertex="1" parent="1">
            <mxGeometry x="-290" y="-1075" width="340" height="40" as="geometry" />
          </mxCell>
        </UserObject>
        <mxCell id="6cosJ_ruShOTFv7M89cE-13" value="" style="rounded=0;whiteSpace=wrap;html=1;" vertex="1" parent="1">
          <mxGeometry x="110" y="-1095" width="350" height="170" as="geometry" />
        </mxCell>
        <UserObject label="Returns raw data from marble_jiange_timings " link="https://api.kaj789.com/api/timingsJiange/${track}/1/${term}" id="6cosJ_ruShOTFv7M89cE-14">
          <mxCell style="text;whiteSpace=wrap;fontStyle=1;align=center;" vertex="1" parent="1">
            <mxGeometry x="115" y="-1075" width="340" height="40" as="geometry" />
          </mxCell>
        </UserObject>
        <UserObject label="Game Control Dashboard- kai_game_control:&lt;br&gt;(View on: https://dashboard.kaj789.com/marbleJiangeTimings)" link="http://api.kaj789.com/api/kjwTimingsInterval/A/1/9593077" id="6cosJ_ruShOTFv7M89cE-16">
          <mxCell style="text;whiteSpace=wrap;html=1;align=center;" vertex="1" parent="1">
            <mxGeometry x="540" y="-1140" width="340" height="40" as="geometry" />
          </mxCell>
        </UserObject>
        <mxCell id="6cosJ_ruShOTFv7M89cE-17" value="" style="rounded=0;whiteSpace=wrap;html=1;" vertex="1" parent="1">
          <mxGeometry x="520" y="-1095" width="380" height="170" as="geometry" />
        </mxCell>
        <UserObject label="Returns raw data from marble_jiange_timings " link="https://api.kaj789.com/api/timingsJiange/${track}/1/${term}" id="6cosJ_ruShOTFv7M89cE-22">
          <mxCell style="text;whiteSpace=wrap;fontStyle=1;align=center;" vertex="1" parent="1">
            <mxGeometry x="520" y="-1075" width="340" height="40" as="geometry" />
          </mxCell>
        </UserObject>
        <mxCell id="6cosJ_ruShOTFv7M89cE-23" value="marble_jiange_timings" style="shape=cylinder3;whiteSpace=wrap;html=1;boundedLbl=1;backgroundOutline=1;size=15;" vertex="1" parent="1">
          <mxGeometry x="9.71" y="-1280" width="160" height="80" as="geometry" />
        </mxCell>
        <mxCell id="6cosJ_ruShOTFv7M89cE-26" value="https://timing.kaj789.com/jianGeCalculation&#xa;(in kai_backend &gt; kai_timing)" style="text;whiteSpace=wrap;fontSize=12;align=center;" vertex="1" parent="1">
          <mxGeometry x="-50" y="-1450" width="280" height="40" as="geometry" />
        </mxCell>
        <UserObject label="https://marble-api.kaj789.com/result&#xa;(in kai_api &gt; kai_marble)" link="https://marble-api.kaj789.com/v2/forecast/B" id="6cosJ_ruShOTFv7M89cE-28">
          <mxCell style="text;whiteSpace=wrap;align=center;" vertex="1" parent="1">
            <mxGeometry x="-40.28999999999999" y="-1540" width="260" height="40" as="geometry" />
          </mxCell>
        </UserObject>
        <mxCell id="6cosJ_ruShOTFv7M89cE-30" value="dubai ops team" style="shape=umlActor;verticalLabelPosition=bottom;verticalAlign=top;html=1;outlineConnect=0;" vertex="1" parent="1">
          <mxGeometry x="-167" y="-1610" width="30" height="60" as="geometry" />
        </mxCell>
        <mxCell id="6cosJ_ruShOTFv7M89cE-32" value="Save results to marble_new, and call the endpoint below within the function:" style="text;html=1;align=center;verticalAlign=middle;whiteSpace=wrap;rounded=0;" vertex="1" parent="1">
          <mxGeometry x="-70.28999999999999" y="-1490" width="320" height="30" as="geometry" />
        </mxCell>
        <mxCell id="6cosJ_ruShOTFv7M89cE-34" style="edgeStyle=orthogonalEdgeStyle;rounded=0;orthogonalLoop=1;jettySize=auto;html=1;entryX=0.5;entryY=0;entryDx=0;entryDy=0;" edge="1" parent="1" source="6cosJ_ruShOTFv7M89cE-30" target="6cosJ_ruShOTFv7M89cE-29">
          <mxGeometry relative="1" as="geometry" />
        </mxCell>
        <UserObject label="Inserts data into marble_jiange_timings " link="https://api.kaj789.com/api/timingsJiange/${track}/1/${term}" id="6cosJ_ruShOTFv7M89cE-35">
          <mxCell style="text;whiteSpace=wrap;fontStyle=1;align=center;" vertex="1" parent="1">
            <mxGeometry x="-75.28999999999999" y="-1400" width="340" height="40" as="geometry" />
          </mxCell>
        </UserObject>
        <mxCell id="6cosJ_ruShOTFv7M89cE-37" style="edgeStyle=orthogonalEdgeStyle;rounded=0;orthogonalLoop=1;jettySize=auto;html=1;exitX=0.5;exitY=1;exitDx=0;exitDy=0;entryX=0.5;entryY=0;entryDx=0;entryDy=0;entryPerimeter=0;" edge="1" parent="1" source="6cosJ_ruShOTFv7M89cE-29" target="6cosJ_ruShOTFv7M89cE-23">
          <mxGeometry relative="1" as="geometry" />
        </mxCell>
        <mxCell id="6cosJ_ruShOTFv7M89cE-40" value="Term can be &amp;lt;= the term specified here in case there is no data." style="text;html=1;align=center;verticalAlign=middle;whiteSpace=wrap;rounded=0;" vertex="1" parent="1">
          <mxGeometry x="125" y="-1030" width="320" height="52.5" as="geometry" />
        </mxCell>
        <mxCell id="6cosJ_ruShOTFv7M89cE-41" value="&lt;h1 style=&quot;margin-top: 0px;&quot;&gt;Timings (Kaj789)&lt;/h1&gt;&lt;p&gt;Backend odds-configuration platform for Marble Magic&lt;/p&gt;" style="text;html=1;whiteSpace=wrap;overflow=hidden;rounded=0;" vertex="1" parent="1">
          <mxGeometry x="-700" y="-1610" width="320" height="90" as="geometry" />
        </mxCell>
      </root>
    </mxGraphModel>
  </diagram>
</mxfile>
